<svg width="101" height="81" viewBox="0 0 101 81" xmlns="http://www.w3.org/2000/svg" xmlns:xlink="http://www.w3.org/1999/xlink">
    <defs>
        <path id="0ruzf1hnma" d="M0 81h100.125V0H0z"/>
    </defs>
    <g transform="translate(.875)" fill="none" fill-rule="evenodd">
        <path d="m37.722 13.512-.002-.104c0-3.13 2.536-5.675 5.655-5.675 3.118 0 5.654 2.546 5.654 5.675l-.002.104h1.349l.002-.104c0-3.876-3.142-7.03-7.003-7.03-3.862 0-7.004 3.154-7.004 7.03l.002.104h1.35zM46.428 44.81h3.812v-4.093h-4.03v-5.985h-3.982v.946c0 3.775.095 7.554-.03 11.325-.1 3.069 2.159 6.862 6.189 7.815.59.14 1.218.121 1.878.18v-3.976c-3.615-.535-4.503-3.315-3.837-6.213" fill="#59BAA1"/>
        <path d="M60.472 42.657c-.024-3.413-2.137-6.414-5.344-7.543-.844-.298-1.77-.364-2.783-.56 0 1.389-.025 2.53.025 3.668.009.188.321.471.537.522 2.32.55 3.485 1.977 3.49 4.366.007 3.38.003 6.76.003 10.14v1.735c1.2 0 2.252-.038 3.3.014.67.033.793-.246.79-.845-.022-3.832.008-7.665-.018-11.497M70.59 42.559a7.947 7.947 0 0 0-6.245-7.747c-.565-.125-1.162-.107-1.761-.157v3.973c3.035.695 3.997 1.92 3.998 5.021l.002 10.241v1.095c1.155 0 2.148-.052 3.134.016.756.053.895-.247.89-.933-.03-3.836-.003-7.673-.018-11.51" fill="#363734"/>
        <path d="M53.124 18.856H34.851c-.743 0-1.345.604-1.345 1.35 0 .746.602 1.35 1.345 1.35h18.273v2.009H34.851a3.364 3.364 0 0 1-3.354-3.367 3.364 3.364 0 0 1 3.354-3.366v.015h18.273v2.009zm1.903 14.39.025.007c.999.352 1.894.714 2.666 1.37v-8.599a2.46 2.46 0 0 0-1.903-2.395v-7.023c0-1.356-1.1-2.46-2.45-2.46H34.85v-.015c-3.333 0-6.045 2.722-6.045 6.067v28.71c0 3.346 2.712 6.068 6.045 6.068H45.3a8.636 8.636 0 0 1-3.415-2.701H34.85a3.364 3.364 0 0 1-3.354-3.367V25.243a5.994 5.994 0 0 0 3.354 1.023h7.197v5.703l2.191-2.044 2.192 2.044v-5.703h8.596v6.98zM8.687 60.537h3.814c.604 0 .906.303.906.908 0 .585-.302.876-.906.876h-1.023v5.97c0 .635-.29.952-.873.952-.603 0-.905-.317-.905-.952v-5.97H8.687c-.618 0-.926-.291-.926-.876 0-.605.308-.908.926-.908M16.37 62.321v1.796h1.616a.947.947 0 0 0 .722-.298.96.96 0 0 0 .28-.675.767.767 0 0 0-.258-.58c-.173-.161-.42-.243-.744-.243H16.37zm-.679-1.784h2.22c.89 0 1.596.256 2.117.768.52.512.78 1.125.78 1.839 0 .44-.107.861-.322 1.265-.215.404-.542.746-.98 1.027l1.077 2.38c.1.216.15.407.15.572 0 .267-.071.478-.215.633-.143.155-.355.233-.635.233-.381 0-.65-.166-.809-.498l-1.411-2.855H16.37v2.358c0 .656-.295.984-.884.984-.596 0-.894-.328-.894-.984v-6.792c0-.62.367-.93 1.1-.93zM25.216 65.847h1.573c-.079-.23-.19-.546-.334-.946a38.88 38.88 0 0 1-.43-1.271l-.809 2.217zm.808-5.3c.524 0 .88.264 1.067.79 1.666 4.6 2.5 6.943 2.5 7.03 0 .26-.077.47-.232.632-.155.163-.368.244-.641.244-.43 0-.718-.187-.862-.563l-.388-1.016h-2.844c-.044.1-.098.247-.162.438l-.14.405c-.173.49-.489.736-.949.736-.28 0-.49-.085-.63-.254a.959.959 0 0 1-.21-.633c0-.094.022-.212.065-.357l2.338-6.661c.18-.527.542-.79 1.088-.79zM31.8 60.526c.603 0 .905.303.905.909v6.9c0 .605-.302.908-.906.908-.596 0-.894-.303-.894-.909v-6.9c0-.605.298-.908.894-.908M35.204 60.526c.38 0 .704.199.97.595l3.07 4.575v-4.25c0-.606.295-.909.884-.909.604 0 .906.303.906.908v6.824c0 .65-.299.974-.895.974-.381 0-.693-.177-.937-.53l-3.104-4.564v4.174c0 .614-.298.92-.894.92-.589 0-.884-.306-.884-.92V61.5c0-.65.295-.974.884-.974M43.64 60.548h3.136c.596 0 .895.299.895.897 0 .6-.299.898-.895.898h-2.295v1.514h1.8c.589 0 .883.3.883.898 0 .591-.294.887-.883.887h-1.8v1.806h2.37c.647 0 .97.299.97.897 0 .599-.323.898-.97.898h-3.21c-.403 0-.66-.063-.77-.19-.112-.125-.167-.39-.167-.794V61.52c0-.649.312-.973.937-.973M50.02 60.548h3.135c.596 0 .894.299.894.897 0 .6-.298.898-.894.898H50.86v1.514h1.8c.588 0 .883.3.883.898 0 .591-.295.887-.884.887h-1.8v1.806h2.371c.647 0 .97.299.97.897 0 .599-.323.898-.97.898h-3.21c-.403 0-.66-.063-.771-.19-.111-.125-.167-.39-.167-.794V61.52c0-.649.312-.973.937-.973" fill="#363734"/>
        <path d="M61.204 60.515c.603 0 1.013.35 1.228 1.05l1.196 4.012 1.229-4.023c.2-.685.614-1.028 1.239-1.028.653 0 1.038.4 1.153 1.2l.948 6.533v.043c0 .007.003.01.01.01l.012.022c0 .281-.083.501-.248.66-.166.159-.38.238-.647.238-.546 0-.854-.288-.926-.865l-.572-4.24c-.129.412-.34 1.113-.63 2.104-.29.991-.515 1.729-.673 2.211-.173.534-.478.8-.916.8-.467 0-.776-.266-.927-.8l-1.174-4.336-.722 4.25c-.044.288-.137.507-.28.654-.144.148-.356.222-.636.222-.273 0-.487-.074-.641-.222-.155-.147-.232-.366-.232-.654 0-.094.007-.173.022-.238l1.023-6.402c.13-.8.517-1.2 1.164-1.2M72.862 65.847h1.574c-.08-.23-.19-.546-.334-.946a38.88 38.88 0 0 1-.431-1.271l-.809 2.217zm.809-5.3c.524 0 .88.264 1.066.79 1.667 4.6 2.5 6.943 2.5 7.03 0 .26-.077.47-.231.632-.155.163-.369.244-.642.244-.43 0-.718-.187-.862-.563l-.388-1.016H72.27c-.043.1-.097.247-.162.438l-.14.405c-.172.49-.489.736-.948.736-.28 0-.49-.085-.63-.254a.959.959 0 0 1-.21-.633c0-.094.02-.212.064-.357l2.338-6.661c.18-.527.542-.79 1.089-.79zM80.459 62.321v1.796h1.616a.947.947 0 0 0 .722-.298.96.96 0 0 0 .28-.675.768.768 0 0 0-.259-.58c-.172-.161-.42-.243-.743-.243h-1.616zm-.68-1.784H82c.891 0 1.597.256 2.118.768.52.512.78 1.125.78 1.839 0 .44-.107.861-.322 1.265-.216.404-.543.746-.98 1.027l1.077 2.38c.1.216.15.407.15.572 0 .267-.071.478-.215.633-.144.155-.356.233-.636.233-.38 0-.65-.166-.808-.498l-1.411-2.855h-1.293v2.358c0 .656-.295.984-.884.984-.596 0-.894-.328-.894-.984v-6.792c0-.62.366-.93 1.099-.93zM87.495 60.537h3.814c.603 0 .905.303.905.908 0 .585-.302.876-.905.876h-1.024v5.97c0 .635-.29.952-.872.952-.604 0-.906-.317-.906-.952v-5.97h-1.012c-.618 0-.927-.291-.927-.876 0-.605.309-.908.927-.908" fill="#59BAA1"/>
        <path d="M25.257 72.838h-.382c-.021 0-.032.01-.032.032v.704c0 .022.01.033.032.033h.382a.382.382 0 0 0 .382-.386.376.376 0 0 0-.382-.383zm-.579-.17h.579c.15 0 .28.055.388.164a.54.54 0 0 1 .159.39.531.531 0 0 1-.159.39.54.54 0 0 1-.388.161h-.382c-.021 0-.032.01-.032.032v.905h-.165v-2.042zM27.54 72.838h-.382c-.022 0-.032.01-.032.032v.704c0 .022.01.033.032.033h.381a.382.382 0 0 0 .382-.386.376.376 0 0 0-.382-.383zm-.579-.17h.578c.151 0 .28.055.39.164a.54.54 0 0 1 .158.39.532.532 0 0 1-.107.327.563.563 0 0 1-.278.2c-.02.004-.025.017-.017.038l.402.923h-.181l-.398-.908c-.007-.02-.021-.029-.042-.029h-.308c-.022 0-.032.01-.032.032v.905h-.165v-2.042zM30.28 72.816a.842.842 0 0 0-.617.256.856.856 0 0 0-.252.618c0 .238.084.443.252.617.17.17.375.255.617.255a.821.821 0 0 0 .614-.255.842.842 0 0 0 .255-.617.844.844 0 0 0-.255-.618.825.825 0 0 0-.614-.256m-.733.139a.998.998 0 0 1 .733-.305c.286 0 .53.102.732.305a1 1 0 0 1 .306.735c0 .287-.102.533-.306.738a.996.996 0 0 1-.732.305.997.997 0 0 1-.733-.305 1.011 1.011 0 0 1-.304-.738c0-.287.102-.532.304-.735M33.521 72.838h-.646a.226.226 0 0 0-.166.069.225.225 0 0 0-.068.165v.502c0 .022.01.033.033.033h.847v.168h-.847c-.022 0-.033.01-.033.03v.905h-.168v-1.638c0-.111.039-.205.116-.283a.385.385 0 0 1 .286-.12h.646v.17z" fill="#363734"/>
        <mask id="wfw0nip5eb" fill="#fff">
            <use xlink:href="#0ruzf1hnma"/>
        </mask>
        <path fill="#363734" mask="url(#wfw0nip5eb)" d="M34.704 74.71h.168v-2.042h-.168zM37.092 72.65c.218 0 .413.06.587.18.17.118.295.274.376.468h-.186a.878.878 0 0 0-.317-.35.826.826 0 0 0-.46-.132.842.842 0 0 0-.616.256.856.856 0 0 0-.253.618c0 .238.084.443.253.617.17.17.375.255.616.255.17 0 .323-.043.46-.13a.89.89 0 0 0 .317-.351h.186a1.037 1.037 0 0 1-.376.468 1.004 1.004 0 0 1-.587.184.997.997 0 0 1-.733-.305 1.011 1.011 0 0 1-.303-.738c0-.287.1-.532.303-.735a.998.998 0 0 1 .733-.305M39.236 74.71h.168v-2.042h-.168zM41.624 72.816a.842.842 0 0 0-.616.256.856.856 0 0 0-.253.618c0 .238.084.443.253.617.17.17.375.255.616.255a.821.821 0 0 0 .614-.255.842.842 0 0 0 .255-.617.844.844 0 0 0-.255-.618.825.825 0 0 0-.614-.256m-.733.139a.998.998 0 0 1 .733-.305c.286 0 .53.102.732.305a1 1 0 0 1 .307.735c0 .287-.102.533-.307.738a.996.996 0 0 1-.732.305.997.997 0 0 1-.733-.305 1.011 1.011 0 0 1-.303-.738c0-.287.1-.532.303-.735M44.045 72.646c.09 0 .156.043.199.13l.824 1.755c.012.027.032.037.062.03.03-.005.045-.022.045-.053v-1.842h.168v1.842a.22.22 0 0 1-.226.224c-.09 0-.156-.042-.199-.127l-.828-1.76c-.01-.027-.03-.036-.063-.03-.028.006-.042.023-.042.055v1.84h-.168v-1.84a.223.223 0 0 1 .228-.224M47.185 72.816c-.035 0-.057.017-.066.052l-.248 1.013c-.005.022.003.033.024.033h.579c.022 0 .03-.01.024-.033l-.247-1.013c-.007-.035-.028-.052-.066-.052m0-.17a.23.23 0 0 1 .228.181l.458 1.883H47.7l-.147-.596c-.003-.023-.016-.034-.038-.034h-.659c-.024 0-.036.011-.038.034l-.147.596h-.17l.456-1.883a.226.226 0 0 1 .08-.131.233.233 0 0 1 .15-.05M49.194 72.668v1.639c0 .066.022.121.067.167a.225.225 0 0 0 .167.068h.646v.168h-.646a.395.395 0 0 1-.402-.403v-1.639h.168zM53.553 72.838h-.326c-.02 0-.031.01-.031.03v1.842h-.167v-1.842c0-.02-.01-.03-.03-.03h-.326v-.17h.88v.17zM55.286 72.838h-.381c-.022 0-.032.01-.032.032v.704c0 .022.01.033.032.033h.381a.382.382 0 0 0 .382-.386.376.376 0 0 0-.382-.383zm-.578-.17h.578c.151 0 .28.055.39.164a.54.54 0 0 1 .158.39.532.532 0 0 1-.107.327.563.563 0 0 1-.277.2c-.02.004-.026.017-.018.038l.402.923h-.181l-.398-.908c-.007-.02-.021-.029-.042-.029h-.308c-.022 0-.032.01-.032.032v.905h-.165v-2.042zM57.676 72.816c-.035 0-.057.017-.067.052l-.248 1.013c-.004.022.004.033.025.033h.578c.023 0 .03-.01.025-.033l-.248-1.013c-.006-.035-.027-.052-.065-.052m0-.17a.23.23 0 0 1 .229.181l.457 1.883h-.172l-.147-.596c-.003-.023-.016-.034-.038-.034h-.659c-.024 0-.037.011-.038.034l-.148.596h-.17l.456-1.883a.226.226 0 0 1 .082-.131.233.233 0 0 1 .148-.05M59.544 74.71h.167v-2.042h-.167zM61.123 72.646c.089 0 .155.043.199.13l.824 1.755c.011.027.032.037.062.03.03-.005.045-.022.045-.053v-1.842h.168v1.842a.22.22 0 0 1-.226.224c-.09 0-.156-.042-.199-.127l-.828-1.76c-.01-.027-.03-.036-.063-.03-.028.006-.042.023-.042.055v1.84h-.168v-1.84a.223.223 0 0 1 .228-.224M64.625 72.838h-.646a.226.226 0 0 0-.166.069.225.225 0 0 0-.068.165v.502c0 .022.01.033.033.033h.847v.168h-.847c-.022 0-.033.01-.033.03v.504c0 .064.022.12.068.165.045.045.1.068.166.068h.646v.168h-.646a.387.387 0 0 1-.286-.116.392.392 0 0 1-.116-.285v-1.237c0-.112.039-.208.116-.285a.383.383 0 0 1 .286-.119h.646v.17zM66.36 72.838h-.381c-.021 0-.032.01-.032.032v.704c0 .022.01.033.032.033h.382a.382.382 0 0 0 .382-.386.376.376 0 0 0-.382-.383zm-.578-.17h.579c.15 0 .28.055.388.164a.54.54 0 0 1 .159.39.532.532 0 0 1-.107.327.563.563 0 0 1-.277.2c-.02.004-.026.017-.018.038l.402.923h-.181l-.398-.908c-.007-.02-.021-.029-.042-.029h-.308c-.021 0-.032.01-.032.032v.905h-.165v-2.042zM70.64 74.71h-.17v-.905c0-.02-.01-.03-.031-.03h-.73c-.023 0-.034.01-.034.03v.905h-.167v-2.042h.167v.906c0 .022.011.033.033.033h.73c.022 0 .032-.01.032-.033v-.906h.17v2.042zM73.007 72.668v1.45c0 .17-.06.314-.179.433a.575.575 0 0 1-.428.18.58.58 0 0 1-.43-.18.586.586 0 0 1-.175-.432v-1.45h.165v1.45c0 .123.042.228.127.313.085.085.19.128.313.128a.423.423 0 0 0 .312-.128.43.43 0 0 0 .13-.313v-1.45h.165zM74.745 73.773h-.38c-.022 0-.033.01-.033.032v.706c0 .02.01.031.033.031h.38c.109 0 .2-.037.27-.112a.383.383 0 0 0-.002-.542.366.366 0 0 0-.268-.115zm0-.935h-.38c-.022 0-.033.011-.033.032v.704c0 .022.01.033.033.033h.38a.384.384 0 0 0 .382-.386.374.374 0 0 0-.112-.273.368.368 0 0 0-.27-.11zm-.58-.17h.58a.54.54 0 0 1 .389.164.543.543 0 0 1 .163.39c0 .204-.088.36-.264.468a.516.516 0 0 1 .264.467.536.536 0 0 1-.163.392.528.528 0 0 1-.39.161h-.58v-2.042z"/>
    </g>
</svg>
